Many people wonder if we are alone in the universe. A group of experts in UFO Hunters is determined to find evidence of extraterrestrial life. Each week the experts travel to different sites where there is rumored to have been a UFO incident and tries to separate fact from fantasy.




Mediainfo:

General
Unique ID : 214148753794835951672031257063833680621 (0xA11B8CBC5427E98E8DA6BCF1A8673AED)
Complete name : ufo.hunters.s01e01.the_ufo_before_roswell.720p-dhd.mkv
Format : Matroska
Format version : Version 1
File size : 1.43 GiB
Duration : 44mn 56s
Overall bit rate : 4 560 Kbps
Encoded date : UTC 2008-02-01 04:01:54
Writing application : mkvmerge v2.1.0 ('Another Place To Fall') built on Aug 19 2007 13:40:07
Writing library : libebml v0.7.7 + libmatroska v0.8.1

Video
ID : 1
Format : AVC
Format/Info : Advanced Video Codec
Format profile : High@L5.1
Format settings, CABAC : Yes
Format settings, ReFrames : 5 frames
Codec ID : V_MPEG4/ISO/AVC
Duration : 44mn 56s
Bit rate : 4 172 Kbps
Width : 1 280 pixels
Height : 720 pixels
Display aspect ratio : 16:9
Frame rate : 29.970 fps
Color space : YUV
Chroma subsampling : 4:2:0
Bit depth : 8 bits
Scan type : Progressive
Bits/(Pixel*Frame) : 0.151
Stream size : 1.28 GiB (90%)
Writing library : x264 core 57 svn-721M
Encoding settings : cabac=1 / ref=5 / deblock=1:0:0 / analyse=0x3:0x133 / me=umh / subme=7 / brdo=1 / mixed_ref=1 / me_range=16 / chroma_me=1 / trellis=1 / 8x8dct=1 / cqm=0 / deadzone=21,11 / chroma_qp_offset=0 / threads=6 / nr=0 / decimate=1 / mbaff=0 / bframes=3 / b_pyramid=1 / b_adapt=1 / b_bias=0 / direct=1 / wpredb=1 / bime=1 / keyint=240 / keyint_min=24 / scenecut=40(pre) / rc=2pass / bitrate=4172 / ratetol=1.0 / rceq='blurCplx^(1-qComp)' / qcomp=0.60 / qpmin=10 / qpmax=51 / qpstep=4 / cplxblur=20.0 / qblur=0.5 / ip_ratio=1.40 / pb_ratio=1.30 / aq=1:1.0:20.0
Language : English
Default : Yes
Forced : No

Audio
ID : 2
Format : AC-3
Format/Info : Audio Coding 3
Mode extension : CM (complete main)
Format settings, Endianness : Big
Codec ID : A_AC3
Duration : 44mn 56s
Bit rate mode : Constant
Bit rate : 384 Kbps
Channel(s) : 2 channels
Channel positions : Front: L R
Sampling rate : 48.0 KHz
Bit depth : 16 bits
Compression mode : Lossy
Stream size : 123 MiB (8%)
Default : Yes
Forced : No
